<svg xmlns="http://www.w3.org/2000/svg" viewBox="0 0 43.92 12.1"><title>Asset 2</title><g id="Layer_2" data-name="Layer 2"><g id="Layer_1-2" data-name="Layer 1"><path d="M4.38.69a5.34,5.34,0,0,1,3,.67,2.6,2.6,0,0,1,1,2.34,3.64,3.64,0,0,1-1,2.67,4.32,4.32,0,0,1-3.15,1H2.91l-.05,3.48,1.25.11a2.06,2.06,0,0,1-.27,1H.24l0-.55A8.3,8.3,0,0,1,1.57,11q-.11-6.24-.16-9.28A13.36,13.36,0,0,1,0,1.3L.08.69ZM4.1,6.3a3,3,0,0,0,2.09-.68,2.4,2.4,0,0,0,.72-1.81,1.65,1.65,0,0,0-.7-1.55A4.33,4.33,0,0,0,4,1.81H3s0,1.51,0,4.5ZM11.44,0a5.78,5.78,0,0,1,.71,0,4.6,4.6,0,0,1-.21,1.28c-.1,6.3-.14,9.46-.14,9.49l1.34.13a2.06,2.06,0,0,1-.27,1H9.19l0-.56a10.31,10.31,0,0,1,1.44-.39l-.16-9.68A6.58,6.58,0,0,1,9,1.07L9.08.24A8.83,8.83,0,0,1,11.44,0Zm9,6.66-.08,4.12a8.28,8.28,0,0,1,1.38.23l0,.56a5.53,5.53,0,0,1-.93.29,6.46,6.46,0,0,1-1.3.14,3,3,0,0,1-.32-1.1,6,6,0,0,1-2.56,1.2,2.69,2.69,0,0,1-1.82-.61,2.15,2.15,0,0,1-.69-1.7c0-1.67,1-2.54,3.07-2.59l1.81,0V6.61A2.73,2.73,0,0,0,18.53,5a1.65,1.65,0,0,0-1.38-.49,2.38,2.38,0,0,0-.89.19l-.39,1.6-.27,0-.65,0a5.89,5.89,0,0,1-.28-1.91,12.3,12.3,0,0,1,1.4-.48,6.64,6.64,0,0,1,1.39-.33,3,3,0,0,1,2.3.72A3.41,3.41,0,0,1,20.43,6.66ZM17,11a6.39,6.39,0,0,0,2.14-1L19,8l-1.82.17A2.32,2.32,0,0,0,16,8.58a1.24,1.24,0,0,0-.45,1.07A1.22,1.22,0,0,0,17,11ZM27.62,3.57a2.82,2.82,0,0,1,2.22.77,3.31,3.31,0,0,1,.69,2.3c0,.3,0,1.69-.13,4.16l1.35.13a2,2,0,0,1-.28,1H27.79l0-.56a10.31,10.31,0,0,1,1.44-.39Q29.09,6.76,29,6.29a3,3,0,0,0-.22-.83,1,1,0,0,0-.48-.5,2.07,2.07,0,0,0-.85-.14,4.41,4.41,0,0,0-2.05.51c-.06,2.43-.11,4.25-.13,5.47l1.35.13a2,2,0,0,1-.28,1H22.67l0-.56a10.31,10.31,0,0,1,1.44-.39q-.11-4.06-.16-6a7.28,7.28,0,0,1-1.41-.19l.06-.84a10,10,0,0,1,2.51-.24,2.16,2.16,0,0,1,.29.84,12.16,12.16,0,0,1,1.38-.64A3.21,3.21,0,0,1,27.62,3.57Zm6.05,7.33-.13-6H32.31l-.05-.56a7.36,7.36,0,0,1,.93-.41l1.31-2A1,1,0,0,1,35,2l0,1.76a9.7,9.7,0,0,1,2,.16,2,2,0,0,1-.27.94H35c0,1.28,0,3.23-.06,5.83a7.58,7.58,0,0,1,1.79.32l0,.56a4.36,4.36,0,0,1-1.15.33,7.57,7.57,0,0,1-1.5.2,2.23,2.23,0,0,1-.21-.55A2.35,2.35,0,0,1,33.67,10.9Zm5.71,0a3.41,3.41,0,0,0,1.36.24A2.35,2.35,0,0,0,42,10.8a.94.94,0,0,0,.46-.83,1.08,1.08,0,0,0-.43-.88A4.64,4.64,0,0,0,41,8.46l-1.25-.57a3.33,3.33,0,0,1-1.05-.8,1.7,1.7,0,0,1-.43-1.15A2.13,2.13,0,0,1,39,4.21a3,3,0,0,1,2-.64,5.39,5.39,0,0,1,2.47.59c0,.11,0,.39,0,.86a4.18,4.18,0,0,1-.14,1.19,3.07,3.07,0,0,1-.91.13L41.92,4.7a2.26,2.26,0,0,0-1-.17,1.31,1.31,0,0,0-.94.32,1,1,0,0,0-.36.78,1.05,1.05,0,0,0,.44.82,5.41,5.41,0,0,0,1.07.64c.41.18.83.38,1.25.59a3.12,3.12,0,0,1,1,.82,1.65,1.65,0,0,1,.45,1.15,2.12,2.12,0,0,1-.9,1.81,3.62,3.62,0,0,1-2.17.64,5.66,5.66,0,0,1-1.51-.23A4.75,4.75,0,0,1,38,11.26a8.37,8.37,0,0,1,.19-1.9,6.53,6.53,0,0,1,1-.06Z"/></g></g></svg>