<svg xmlns="http://www.w3.org/2000/svg" viewBox="0 0 65.96 21"><defs><style>.cls-1,.cls-2{fill:none;stroke:#499a45;stroke-linejoin:round;}.cls-1{stroke-linecap:round;}</style></defs><title>Asset 3</title><g id="Layer_2" data-name="Layer 2"><g id="Layer_1-2" data-name="Layer 1"><path class="cls-1" d="M2,20.45,10.42,3.16S3.08,6.51,1.5,10.41a13.1,13.1,0,0,0,0,10"/><path class="cls-2" d="M1.5,20.49S27.21-9.1,18.82,3.72s.85,2.41-3.82,9.85S1.5,20.49,1.5,20.49Z"/><path d="M26.43,9.34a5.41,5.41,0,0,1,3,.67,2.59,2.59,0,0,1,1,2.34,3.64,3.64,0,0,1-1,2.67,4.32,4.32,0,0,1-3.15,1H25l0,3.47,1.24.11a2.06,2.06,0,0,1-.27,1h-3.6L22.23,20a8.33,8.33,0,0,1,1.38-.39c-.06-4.16-.12-7.25-.16-9.28A13.36,13.36,0,0,1,22,10l.08-.61ZM26.14,15a3,3,0,0,0,2.09-.69A2.39,2.39,0,0,0,29,12.46a1.66,1.66,0,0,0-.7-1.55A4.33,4.33,0,0,0,26,10.46l-1,0S25,12,25,15Zm7.35-6.31a3.86,3.86,0,0,1,.7,0A4.66,4.66,0,0,1,34,10q-.13,9.44-.14,9.48l1.34.13a2.06,2.06,0,0,1-.27,1H31.23L31.18,20a9,9,0,0,1,1.44-.38l-.16-9.68a7.4,7.4,0,0,1-1.41-.19l.07-.84A8.86,8.86,0,0,1,33.49,8.65Zm9,6.66-.08,4.13a7.37,7.37,0,0,1,1.37.22l0,.56a4.72,4.72,0,0,1-.93.29,5.79,5.79,0,0,1-1.29.14,2.68,2.68,0,0,1-.32-1.1,6.06,6.06,0,0,1-2.56,1.2,2.65,2.65,0,0,1-1.83-.61,2.13,2.13,0,0,1-.69-1.69c0-1.68,1-2.54,3.08-2.6l1.8,0v-.55a2.65,2.65,0,0,0-.42-1.58,1.63,1.63,0,0,0-1.37-.5,2.6,2.6,0,0,0-.9.19L37.92,15l-.28,0L37,14.94a5.86,5.86,0,0,1-.27-1.9,8.52,8.52,0,0,1,1.39-.48,6.27,6.27,0,0,1,1.39-.34,3,3,0,0,1,2.3.72A3.41,3.41,0,0,1,42.48,15.31ZM39,19.66a6.39,6.39,0,0,0,2.14-1l-.08-2c-.72.07-1.33.12-1.82.18a2.23,2.23,0,0,0-1.19.43,1.26,1.26,0,0,0-.44,1.07A1.21,1.21,0,0,0,39,19.66Zm10.67-7.44a2.87,2.87,0,0,1,2.23.77,3.36,3.36,0,0,1,.68,2.3c0,.3,0,1.69-.12,4.16l1.34.13a2.06,2.06,0,0,1-.27,1H49.84L49.79,20a9,9,0,0,1,1.44-.38c-.06-2.8-.12-4.35-.18-4.66a2.72,2.72,0,0,0-.22-.83,1,1,0,0,0-.48-.5,2.21,2.21,0,0,0-.85-.14,4.44,4.44,0,0,0-2,.51c-.06,2.43-.1,4.26-.12,5.47l1.34.13a2.06,2.06,0,0,1-.27,1H44.72l0-.56a9,9,0,0,1,1.44-.38c-.06-2.71-.12-4.72-.16-6a6.58,6.58,0,0,1-1.41-.19l.07-.83a9.91,9.91,0,0,1,2.51-.24,2.27,2.27,0,0,1,.29.83,11.28,11.28,0,0,1,1.37-.64A3.65,3.65,0,0,1,49.66,12.22Zm6.05,7.33-.13-6H54.35L54.3,13a5.71,5.71,0,0,1,.93-.42l1.31-2a1.05,1.05,0,0,1,.5.16l0,1.76a10.48,10.48,0,0,1,2,.16,2.06,2.06,0,0,1-.27.95H57q0,1.92-.06,5.82a7.49,7.49,0,0,1,1.79.32l0,.56a4.11,4.11,0,0,1-1.15.34,7.44,7.44,0,0,1-1.5.19,3.79,3.79,0,0,1-.21-.54A2.86,2.86,0,0,1,55.71,19.55Zm5.71,0a3.45,3.45,0,0,0,1.36.24,2.27,2.27,0,0,0,1.28-.31.94.94,0,0,0,.46-.83,1.09,1.09,0,0,0-.43-.88A4.77,4.77,0,0,0,63,17.12c-.42-.18-.84-.38-1.25-.58a3.26,3.26,0,0,1-1.06-.8,1.68,1.68,0,0,1-.43-1.15A2.12,2.12,0,0,1,61,12.86a3,3,0,0,1,2-.64,5.37,5.37,0,0,1,2.46.59c0,.11,0,.4,0,.87a4.08,4.08,0,0,1-.15,1.18,2.73,2.73,0,0,1-.91.13L64,13.36a2.1,2.1,0,0,0-1-.18,1.35,1.35,0,0,0-.94.32,1,1,0,0,0-.35.79,1,1,0,0,0,.43.81,5.22,5.22,0,0,0,1.07.64c.42.18.83.38,1.25.59a3.32,3.32,0,0,1,1.06.82A1.69,1.69,0,0,1,66,18.3a2.14,2.14,0,0,1-.89,1.81,3.59,3.59,0,0,1-2.18.64,5.92,5.92,0,0,1-1.5-.22A5.13,5.13,0,0,1,60,19.92a8.42,8.42,0,0,1,.2-1.91,6.35,6.35,0,0,1,1-.06Z"/></g></g></svg>